<svg width="32" height="32" viewBox="0 0 32 32" fill="none" xmlns="http://www.w3.org/2000/svg">
<rect width="32" height="32" fill="#4C4848"/>
<path d="M15.9833 27.8998C14.2451 27.8998 12.5738 27.6212 10.9693 27.0641C9.38714 26.4847 8.16151 25.7494 7.29242 24.858L8.26179 22.9527C9.0863 23.7549 10.1894 24.4346 11.571 24.9917C12.9749 25.5265 14.4457 25.7939 15.9833 25.7939C17.454 25.7939 18.6462 25.6156 19.5599 25.2591C20.4958 24.8803 21.1755 24.3789 21.5989 23.7549C22.0446 23.131 22.2674 22.4401 22.2674 21.6825C22.2674 20.7688 22 20.0334 21.4652 19.4763C20.9527 18.9192 20.273 18.4847 19.4262 18.1727C18.5794 17.8384 17.6435 17.5487 16.6184 17.3036C15.5933 17.0585 14.5682 16.8022 13.5432 16.5348C12.5181 16.2451 11.571 15.8663 10.7019 15.3983C9.85511 14.9303 9.1643 14.3175 8.62948 13.5599C8.11694 12.7799 7.86067 11.766 7.86067 10.5181C7.86067 9.35929 8.1615 8.30078 8.76318 7.34256C9.38714 6.36205 10.3342 5.58211 11.6044 5.00272C12.8746 4.40104 14.5014 4.1002 16.4847 4.1002C17.7994 4.1002 19.1031 4.28962 20.3956 4.66845C21.688 5.025 22.8023 5.5264 23.7382 6.17264L22.9025 8.14479C21.8997 7.47627 20.8301 6.98601 19.6936 6.67404C18.5794 6.36206 17.4986 6.20607 16.4512 6.20607C15.0473 6.20607 13.8886 6.39548 12.9749 6.77431C12.0612 7.15315 11.3816 7.66568 10.9359 8.31193C10.5125 8.93589 10.3008 9.64898 10.3008 10.4512C10.3008 11.3649 10.5571 12.1002 11.0696 12.6574C11.6044 13.2145 12.2952 13.649 13.142 13.961C14.0111 14.273 14.9582 14.5515 15.9833 14.7966C17.0084 15.0418 18.0223 15.3092 19.0251 15.5989C20.0502 15.8886 20.9861 16.2674 21.8329 16.7354C22.702 17.1811 23.3928 17.7827 23.9053 18.5404C24.4402 19.2981 24.7076 20.2897 24.7076 21.5153C24.7076 22.6518 24.3956 23.7103 23.7716 24.6908C23.1477 25.6491 22.1894 26.429 20.897 27.0307C19.6267 27.6101 17.9889 27.8998 15.9833 27.8998Z" fill="#EEEEEE"/>
</svg>
